name: VT320
spacing: character-cell
raster-size: 15 12
converter: monobit v0.22
source-name: vt-glyphs1.png vt-glyphs2.png
source-format: Bitmap Image
source-url: https://vt100.net/dec/vt320/glyphs


# [ ] SPACE
0x00:
u+0020:
    ...............
    ...............
    ...............
    ...............
    ...............
    ...............
    ...............
    ...............
    ...............
    ...............
    ...............
    ...............


# [␁] SYMBOL FOR START OF HEADING
0x01:
u+2401:
    ...............
    ...@@@@@.......
    ..@@...........
    ...@@@@........
    ......@@.......
    ..@@@@@........
    ........@@..@@.
    ........@@..@@.
    ........@@@@@@.
    ........@@..@@.
    ........@@..@@.
    ...............


# [␂] SYMBOL FOR START OF TEXT
0x02:
u+2402:
    ...............
    ...@@@@@.......
    ..@@...........
    ...@@@@........
    ......@@.......
    ..@@@@@........
    ........@@..@@.
    .........@@@@..
    ..........@@...
    .........@@@@..
    ........@@..@@.
    ...............


# [␃] SYMBOL FOR END OF TEXT
0x03:
u+2403:
    ...............
    ..@@@@@........
    ..@@...........
    ..@@@@@........
    ..@@...........
    ..@@@@@........
    ........@@..@@.
    .........@@@@..
    ..........@@...
    .........@@@@..
    ........@@..@@.
    ...............


# [␄] SYMBOL FOR END OF TRANSMISSION
0x04:
u+2404:
    ...............
    ..@@@@@........
    ..@@...........
    ..@@@@@........
    ..@@...........
    ..@@@@@........
    ........@@@@@@.
    ..........@@...
    ..........@@...
    ..........@@...
    ..........@@...
    ...............


# [␅] SYMBOL FOR ENQUIRY
0x05:
u+2405:
    ...............
    ..@@@@@........
    ..@@...........
    ..@@@@@........
    ..@@...........
    ..@@@@@........
    .........@@@@..
    ........@@..@@.
    ........@@..@@.
    .........@@@@..
    ...........@@@.
    ...............


# [␆] SYMBOL FOR ACKNOWLEDGE
0x06:
u+2406:
    ...............
    ...@@@@........
    ..@@..@@.......
    ..@@@@@@.......
    ..@@..@@.......
    ..@@..@@.......
    ........@@..@@.
    ........@@.@@..
    ........@@@@...
    ........@@.@@..
    ........@@..@@.
    ...............


# [␇] SYMBOL FOR BELL
0x07:
u+2407:
    ...............
    ..@@@@@........
    ..@@..@@.......
    ..@@@@@........
    ..@@..@@.......
    ..@@@@@........
    .........@@....
    .........@@....
    .........@@....
    .........@@....
    .........@@@@@.
    ...............


# [␈] SYMBOL FOR BACKSPACE
0x08:
u+2408:
    ...............
    ..@@@@@........
    ..@@..@@.......
    ..@@@@@........
    ..@@..@@.......
    ..@@@@@........
    .........@@@@@.
    ........@@.....
    .........@@@@..
    ............@@.
    ........@@@@@..
    ...............


# [␉] SYMBOL FOR HORIZONTAL TABULATION
0x09:
u+2409:
    ...............
    ..@@..@@.......
    ..@@..@@.......
    ..@@@@@@.......
    ..@@..@@.......
    ..@@..@@.......
    ........@@@@@@.
    ..........@@...
    ..........@@...
    ..........@@...
    ..........@@...
    ...............


# [␊] SYMBOL FOR LINE FEED
0x0a:
u+240a:
    ...............
    ..@@...........
    ..@@...........
    ..@@...........
    ..@@...........
    ..@@@@.........
    .........@@@@@.
    .........@@....
    .........@@@@@.
    .........@@....
    .........@@....
    ...............


# [␋] SYMBOL FOR VERTICAL TABULATION
0x0b:
u+240b:
    ...............
    ..@@..@@.......
    ..@@..@@.......
    ..@@..@@.......
    ...@@@@........
    ....@@.........
    ........@@@@@@.
    ..........@@...
    ..........@@...
    ..........@@...
    ..........@@...
    ...............


# [␌] SYMBOL FOR FORM FEED
0x0c:
u+240c:
    ...............
    ..@@@@@........
    ..@@...........
    ..@@@@@........
    ..@@...........
    ..@@...........
    .........@@@@@.
    .........@@....
    .........@@@@@.
    .........@@....
    .........@@....
    ...............


# [␍] SYMBOL FOR CARRIAGE RETURN
0x0d:
u+240d:
    ...............
    ...@@@@........
    ..@@...........
    ..@@...........
    ..@@...........
    ...@@@@........
    .........@@@@..
    .........@@.@@.
    .........@@.@@.
    .........@@@@..
    .........@@.@@.
    ...............


# [␎] SYMBOL FOR SHIFT OUT
0x0e:
u+240e:
    ...............
    ...@@@@@.......
    ..@@...........
    ...@@@@........
    ......@@.......
    ..@@@@@........
    .........@@@@..
    ........@@..@@.
    ........@@..@@.
    ........@@..@@.
    .........@@@@..
    ...............


# [␏] SYMBOL FOR SHIFT IN
0x0f:
u+240f:
    ...............
    ...@@@@@.......
    ..@@...........
    ...@@@@........
    ......@@.......
    ..@@@@@........
    .........@@@@..
    ..........@@...
    ..........@@...
    ..........@@...
    .........@@@@..
    ...............


# [␐] SYMBOL FOR DATA LINK ESCAPE
0x10:
u+2410:
    ...............
    ..@@@@@........
    ..@@..@@.......
    ..@@..@@.......
    ..@@..@@.......
    ..@@@@@........
    .........@@....
    .........@@....
    .........@@....
    .........@@....
    .........@@@@@.
    ...............


# [␑] SYMBOL FOR DEVICE CONTROL ONE
0x11:
u+2411:
    ...............
    ..@@@@@........
    ..@@..@@.......
    ..@@..@@.......
    ..@@..@@.......
    ..@@@@@........
    ...........@@..
    .........@@@@..
    ...........@@..
    ...........@@..
    ...........@@..
    ...............


# [␒] SYMBOL FOR DEVICE CONTROL TWO
0x12:
u+2412:
    ...............
    ..@@@@@........
    ..@@..@@.......
    ..@@..@@.......
    ..@@..@@.......
    ..@@@@@........
    .........@@@@..
    ............@@.
    ..........@@@..
    .........@@....
    .........@@@@@.
    ...............


# [␓] SYMBOL FOR DEVICE CONTROL THREE
0x13:
u+2413:
    ...............
    ..@@@@@........
    ..@@..@@.......
    ..@@..@@.......
    ..@@..@@.......
    ..@@@@@........
    .........@@@@..
    ............@@.
    .........@@@@..
    ............@@.
    .........@@@@..
    ...............


# [␔] SYMBOL FOR DEVICE CONTROL FOUR
0x14:
u+2414:
    ...............
    ..@@@@@........
    ..@@..@@.......
    ..@@..@@.......
    ..@@..@@.......
    ..@@@@@........
    ..........@@@..
    .........@@@@..
    ........@@.@@..
    .......@@@@@@@.
    ...........@@..
    ...............


# [␕] SYMBOL FOR NEGATIVE ACKNOWLEDGE
0x15:
u+2415:
    ...............
    ..@@..@@.......
    ..@@@.@@.......
    ..@@.@@@.......
    ..@@.@@@.......
    ..@@..@@.......
    ........@@..@@.
    ........@@.@@..
    ........@@@@...
    ........@@.@@..
    ........@@..@@.
    ...............


# [␖] SYMBOL FOR SYNCHRONOUS IDLE
0x16:
u+2416:
    ...............
    ...@@@@@.......
    ..@@...........
    ...@@@@........
    ......@@.......
    ..@@@@@........
    ........@@..@@.
    ........@@..@@.
    .........@@@@..
    ..........@@...
    ..........@@...
    ...............


# [␗] SYMBOL FOR END OF TRANSMISSION BLOCK
0x17:
u+2417:
    ...............
    ..@@@@@........
    ..@@...........
    ..@@@@@........
    ..@@...........
    ..@@@@@........
    ........@@@@@..
    ........@@..@@.
    ........@@@@@..
    ........@@..@@.
    ........@@@@@..
    ...............


# [␘] SYMBOL FOR CANCEL
0x18:
u+2418:
    ...............
    ...@@@@........
    ..@@...........
    ..@@...........
    ..@@...........
    ...@@@@........
    ........@@..@@.
    ........@@@.@@.
    ........@@.@@@.
    ........@@.@@@.
    ........@@..@@.
    ...............


# [␙] SYMBOL FOR END OF MEDIUM
0x19:
u+2419:
    ...............
    ..@@@@@........
    ..@@...........
    ..@@@@@........
    ..@@...........
    ..@@@@@........
    .......@@...@@.
    .......@@@.@@@.
    .......@@.@.@@.
    .......@@...@@.
    .......@@...@@.
    ...............


# [␦] SYMBOL FOR SUBSTITUTE FORM TWO
0x1a:
u+2426:
    ...............
    .....@@@@@@....
    ...@@@@@@@@@@..
    ..@@@@....@@@@.
    ..@@@@.........
    ..@@@@.........
    ...@@@@@@@.....
    .....@@@@@@@...
    ........@@@@...
    ...............
    ........@@@@...
    ........@@@@...


# [␛] SYMBOL FOR ESCAPE
0x1b:
u+241b:
    ...............
    ..@@@@@........
    ..@@...........
    ..@@@@@........
    ..@@...........
    ..@@@@@........
    .........@@@@..
    ........@@.....
    ........@@.....
    ........@@.....
    .........@@@@..
    ...............


# [␜] SYMBOL FOR FILE SEPARATOR
0x1c:
u+241c:
    ...............
    ...@@@@@.......
    ...@@..........
    ...@@@@@.......
    ...@@..........
    ...@@..........
    .........@@@@@.
    ........@@.....
    .........@@@@..
    ............@@.
    ........@@@@@..
    ...............


# [␝] SYMBOL FOR GROUP SEPARATOR
0x1d:
u+241d:
    ...............
    ...@@@@........
    ..@@...........
    ..@@..@@.......
    ..@@..@@.......
    ...@@@@........
    .........@@@@..
    ........@@.....
    .........@@@...
    ...........@@..
    ........@@@@...
    ...............


# [␞] SYMBOL FOR RECORD SEPARATOR
0x1e:
u+241e:
    ...............
    ..@@@@@........
    ..@@..@@.......
    ..@@@@.........
    ..@@.@@........
    ..@@..@@.......
    .........@@@@@.
    ........@@.....
    .........@@@@..
    ............@@.
    ........@@@@@..
    ...............


# [␟] SYMBOL FOR UNIT SEPARATOR
0x1f:
u+241f:
    ...............
    ..@@..@@.......
    ..@@..@@.......
    ..@@..@@.......
    ..@@..@@.......
    ...@@@@........
    .........@@@@@.
    ........@@.....
    .........@@@@..
    ............@@.
    ........@@@@@..
    ...............


# [�] REPLACEMENT CHARACTER
0x20:
u+fffd:
    ...............
    .....@@@@@@....
    ...@@@@@@@@@@..
    ..@@@@....@@@@.
    ..@@@@.........
    ..@@@@.........
    ...@@@@@@@.....
    .....@@@@@@@...
    ........@@@@...
    ...............
    ........@@@@...
    ........@@@@...


# [!] EXCLAMATION MARK
0x21:
u+0021:
    ...............
    ...............
    ...............
    .......@@@.....
    .......@@@.....
    .......@@@.....
    .......@@@.....
    .......@@@.....
    ...............
    .......@@@.....
    ...............
    ...............


# ["] QUOTATION MARK
0x22:
u+0022:
    ...............
    ...............
    ....@@@...@@@..
    ....@@@...@@@..
    ...............
    ...............
    ...............
    ...............
    ...............
    ...............
    ...............
    ...............


# [#] NUMBER SIGN
0x23:
u+0023:
    ...............
    ...............
    ...............
    ...............
    ....@@@..@@@...
    ..@@@@@@@@@@@@.
    ....@@@..@@@...
    ....@@@..@@@...
    ..@@@@@@@@@@@@.
    ....@@@..@@@...
    ...............
    ...............


# [$] DOLLAR SIGN
0x24:
u+0024:
    ...............
    ...............
    ...............
    .......@@......
    ....@@@@@@@@...
    ..@@@..@@......
    ....@@@@@@@@...
    .......@@..@@@.
    ....@@@@@@@@...
    .......@@......
    ...............
    ...............


# [%] PERCENT SIGN
0x25:
u+0025:
    ...............
    ...............
    ...............
    ...@@@....@@...
    ..@@.@@..@@....
    ...@@@..@@.....
    .......@@......
    ......@@..@@@..
    .....@@..@@.@@.
    ....@@....@@@..
    ...............
    ...............


# [&] AMPERSAND
0x26:
u+0026:
    ...............
    ...............
    ...............
    .....@@@@@.....
    ....@@...@@....
    .....@@@@...@@.
    ...@@@..@@..@@.
    ..@@@....@@@...
    ..@@@...@@.@@..
    ....@@@@@..@@@.
    ...............
    ...............


# ['] APOSTROPHE
0x27:
u+0027:
    ...............
    ...............
    .......@@@.....
    .....@@@.......
    ...............
    ...............
    ...............
    ...............
    ...............
    ...............
    ...............
    ...............


# [(] LEFT PARENTHESIS
0x28:
u+0028:
    ...............
    ...............
    .........@@....
    .......@@......
    ......@@.......
    .....@@@.......
    .....@@@.......
    .....@@@.......
    ......@@.......
    .......@@......
    .........@@....
    ...............


# [)] RIGHT PARENTHESIS
0x29:
u+0029:
    ...............
    ...............
    .....@@........
    .......@@......
    ........@@.....
    ........@@@....
    ........@@@....
    ........@@@....
    ........@@.....
    .......@@......
    .....@@........
    ...............


# [*] ASTERISK
0x2a:
u+002a:
    ...............
    ...............
    ...............
    ...............
    .......@@......
    ...@@@.@@.@@@..
    ......@@@@.....
    ...@@@.@@.@@@..
    .......@@......
    ...............
    ...............
    ...............


# [+] PLUS SIGN
0x2b:
u+002b:
    ...............
    ...............
    ...............
    ...............
    .......@@@.....
    .......@@@.....
    ...@@@@@@@@@@@.
    .......@@@.....
    .......@@@.....
    ...............
    ...............
    ...............


# [,] COMMA
0x2c:
u+002c:
    ...............
    ...............
    ...............
    ...............
    ...............
    ...............
    ...............
    ...............
    ........@@@@...
    ........@@@@...
    ......@@@@.....
    ....@@@@.......


# [-] HYPHEN-MINUS
0x2d:
u+002d:
    ...............
    ...............
    ...............
    ...............
    ...............
    ...............
    ....@@@@@@@@@..
    ...............
    ...............
    ...............
    ...............
    ...............


# [.] FULL STOP
0x2e:
u+002e:
    ...............
    ...............
    ...............
    ...............
    ...............
    ...............
    ...............
    ...............
    ......@@@@.....
    ......@@@@.....
    ...............
    ...............


# [/] SOLIDUS
0x2f:
u+002f:
    ...............
    ...............
    ...........@@@.
    ..........@@@..
    .........@@@...
    ........@@@....
    .......@@@.....
    ......@@@......
    .....@@@.......
    ....@@@........
    ...@@@.........
    ...............


# [0] DIGIT ZERO
0x30:
u+0030:
    ...............
    ...............
    ...............
    ......@@@@.....
    ....@@....@@...
    ...@@@....@@@..
    ...@@@....@@@..
    ...@@@....@@@..
    ....@@....@@...
    ......@@@@.....
    ...............
    ...............


# [1] DIGIT ONE
0x31:
u+0031:
    ...............
    ...............
    ...............
    .......@@@.....
    .....@@@@@.....
    .......@@@.....
    .......@@@.....
    .......@@@.....
    .......@@@.....
    ....@@@@@@@@@..
    ...............
    ...............


# [2] DIGIT TWO
0x32:
u+0032:
    ...............
    ...............
    ...............
    ....@@@@@@@....
    ...@@.....@@@..
    ..........@@@..
    .........@@@...
    .......@@@.....
    .....@@@.......
    ...@@@@@@@@@@..
    ...............
    ...............


# [3] DIGIT THREE
0x33:
u+0033:
    ...............
    ...............
    ...............
    .....@@@@@@@...
    ...@@@.....@@@.
    ...........@@@.
    .......@@@@@...
    ...........@@@.
    ...@@@.....@@@.
    .....@@@@@@@...
    ...............
    ...............


# [4] DIGIT FOUR
0x34:
u+0034:
    ...............
    ...............
    ...............
    .......@@@@@...
    .....@@..@@@...
    ....@@...@@@...
    ...@@....@@@...
    ..@@@@@@@@@@@@.
    .........@@@...
    .........@@@...
    ...............
    ...............


# [5] DIGIT FIVE
0x35:
u+0035:
    ...............
    ...............
    ...............
    ...@@@@@@@@@@..
    ...@@@.........
    ...@@@.@@@@....
    ...@@@@...@@@..
    ...........@@@.
    ...@@.....@@@..
    .....@@@@@@....
    ...............
    ...............


# [6] DIGIT SIX
0x36:
u+0036:
    ...............
    ...............
    ...............
    .......@@@@@...
    ....@@@........
    ...@@@.........
    ...@@@.@@@@@...
    ...@@@@....@@@.
    ....@@@....@@@.
    .......@@@@@...
    ...............
    ...............


# [7] DIGIT SEVEN
0x37:
u+0037:
    ...............
    ...............
    ...............
    ...@@@@@@@@@@..
    ..........@@@..
    .........@@@...
    ........@@@....
    .......@@@.....
    ......@@@......
    .....@@@.......
    ...............
    ...............


# [8] DIGIT EIGHT
0x38:
u+0038:
    ...............
    ...............
    ...............
    .....@@@@@@....
    ...@@@....@@@..
    ...@@@....@@@..
    ....@@@@@@@@...
    ...@@@....@@@..
    ...@@@....@@@..
    .....@@@@@@....
    ...............
    ...............


# [9] DIGIT NINE
0x39:
u+0039:
    ...............
    ...............
    ...............
    .....@@@@@@....
    ...@@@....@@@..
    ...@@@....@@@@.
    .....@@@@@.@@@.
    ...........@@@.
    ..........@@@..
    .....@@@@@@....
    ...............
    ...............


# [:] COLON
0x3a:
u+003a:
    ...............
    ...............
    ...............
    ...............
    ......@@@@.....
    ......@@@@.....
    ...............
    ...............
    ......@@@@.....
    ......@@@@.....
    ...............
    ...............


# [;] SEMICOLON
0x3b:
u+003b:
    ...............
    ...............
    ...............
    ...............
    .......@@@@....
    .......@@@@....
    ...............
    ...............
    .......@@@@....
    .......@@@@....
    .....@@@@......
    ...@@@@........


# [<] LESS-THAN SIGN
0x3c:
u+003c:
    ...............
    ...............
    ...............
    ..........@@@..
    ........@@@....
    ......@@@......
    ....@@@........
    ......@@@......
    ........@@@....
    ..........@@@..
    ...............
    ...............


# [=] EQUALS SIGN
0x3d:
u+003d:
    ...............
    ...............
    ...............
    ...............
    ...............
    ....@@@@@@@@@..
    ...............
    ....@@@@@@@@@..
    ...............
    ...............
    ...............
    ...............


# [>] GREATER-THAN SIGN
0x3e:
u+003e:
    ...............
    ...............
    ...............
    ...@@@.........
    .....@@@.......
    .......@@@.....
    .........@@@...
    .......@@@.....
    .....@@@.......
    ...@@@.........
    ...............
    ...............


# [?] QUESTION MARK
0x3f:
u+003f:
    ...............
    ...............
    ...............
    .....@@@@@@@...
    ...@@@....@@@..
    ..........@@@..
    ........@@@....
    ......@@@......
    ...............
    ......@@@......
    ...............
    ...............


# [@] COMMERCIAL AT
0x40:
u+0040:
    ...............
    ...............
    .....@@@@@@@...
    ...@@@....@@@..
    ..@@@..@@@@@@@.
    ..@@@..@@..@@@.
    ..@@@..@@..@@@.
    ..@@@...@@@@@..
    ...@@@.........
    .....@@@@@@@@..
    ...............
    ...............


# [A] LATIN CAPITAL LETTER A
0x41:
u+0041:
    ...............
    ...............
    ...............
    ......@@@@.....
    .....@@@@@@....
    ....@@@..@@@...
    ...@@@....@@@..
    ...@@@@@@@@@@..
    ..@@@......@@@.
    ..@@@......@@@.
    ...............
    ...............


# [B] LATIN CAPITAL LETTER B
0x42:
u+0042:
    ...............
    ...............
    ...............
    ..@@@@@@@@@@@..
    ..@@@......@@@.
    ..@@@......@@@.
    ..@@@@@@@@@@...
    ..@@@......@@@.
    ..@@@......@@@.
    ..@@@@@@@@@@@..
    ...............
    ...............


# [C] LATIN CAPITAL LETTER C
0x43:
u+0043:
    ...............
    ...............
    ...............
    .....@@@@@@@...
    ...@@@.....@@@.
    ..@@@..........
    ..@@@..........
    ..@@@..........
    ...@@@.....@@@.
    .....@@@@@@@...
    ...............
    ...............


# [D] LATIN CAPITAL LETTER D
0x44:
u+0044:
    ...............
    ...............
    ...............
    ..@@@@@@@@@....
    ..@@@.....@@@..
    ..@@@......@@@.
    ..@@@......@@@.
    ..@@@......@@@.
    ..@@@.....@@@..
    ..@@@@@@@@@....
    ...............
    ...............


# [E] LATIN CAPITAL LETTER E
0x45:
u+0045:
    ...............
    ...............
    ...............
    ....@@@@@@@@@..
    ....@@@........
    ....@@@........
    ....@@@@@@@@@..
    ....@@@........
    ....@@@........
    ....@@@@@@@@@..
    ...............
    ...............


# [F] LATIN CAPITAL LETTER F
0x46:
u+0046:
    ...............
    ...............
    ...............
    ....@@@@@@@@@..
    ....@@@........
    ....@@@........
    ....@@@@@@@@@..
    ....@@@........
    ....@@@........
    ....@@@........
    ...............
    ...............


# [G] LATIN CAPITAL LETTER G
0x47:
u+0047:
    ...............
    ...............
    ...............
    .....@@@@@@@...
    ...@@@.....@@@.
    ..@@@..........
    ..@@@....@@@@@.
    ..@@@......@@@.
    ...@@@.....@@@.
    .....@@@@@@@...
    ...............
    ...............


# [H] LATIN CAPITAL LETTER H
0x48:
u+0048:
    ...............
    ...............
    ...............
    ..@@@......@@@.
    ..@@@......@@@.
    ..@@@......@@@.
    ..@@@@@@@@@@@@.
    ..@@@......@@@.
    ..@@@......@@@.
    ..@@@......@@@.
    ...............
    ...............


# [I] LATIN CAPITAL LETTER I
0x49:
u+0049:
    ...............
    ...............
    ...............
    .....@@@@@@@...
    .......@@@.....
    .......@@@.....
    .......@@@.....
    .......@@@.....
    .......@@@.....
    .....@@@@@@@...
    ...............
    ...............


# [J] LATIN CAPITAL LETTER J
0x4a:
u+004a:
    ...............
    ...............
    ...............
    .......@@@@@@..
    .........@@@...
    .........@@@...
    .........@@@...
    .........@@@...
    ..@@@....@@@...
    ....@@@@@@@....
    ...............
    ...............


# [K] LATIN CAPITAL LETTER K
0x4b:
u+004b:
    ...............
    ...............
    ...............
    ...@@@.....@@@.
    ...@@@....@@@..
    ...@@@..@@@....
    ...@@@@@@......
    ...@@@..@@@....
    ...@@@....@@@..
    ...@@@.....@@@.
    ...............
    ...............


# [L] LATIN CAPITAL LETTER L
0x4c:
u+004c:
    ...............
    ...............
    ...............
    ...@@@.........
    ...@@@.........
    ...@@@.........
    ...@@@.........
    ...@@@.........
    ...@@@.........
    ...@@@@@@@@@@..
    ...............
    ...............


# [M] LATIN CAPITAL LETTER M
0x4d:
u+004d:
    ...............
    ...............
    ...............
    ..@@@@....@@@@.
    ..@@@@@..@@@@@.
    ..@@@.@..@.@@@.
    ..@@@.@@@@.@@@.
    ..@@@..@@..@@@.
    ..@@@..@@..@@@.
    ..@@@......@@@.
    ...............
    ...............


# [N] LATIN CAPITAL LETTER N
0x4e:
u+004e:
    ...............
    ...............
    ...............
    ..@@@......@@@.
    ..@@@@.....@@@.
    ..@@@@@@...@@@.
    ..@@@.@@@..@@@.
    ..@@@...@@@@@@.
    ..@@@....@@@@@.
    ..@@@......@@@.
    ...............
    ...............


# [O] LATIN CAPITAL LETTER O
0x4f:
u+004f:
    ...............
    ...............
    ...............
    .....@@@@@@....
    ...@@@....@@@..
    ..@@@......@@@.
    ..@@@......@@@.
    ..@@@......@@@.
    ...@@@....@@@..
    .....@@@@@@....
    ...............
    ...............


# [P] LATIN CAPITAL LETTER P
0x50:
u+0050:
    ...............
    ...............
    ...............
    ...@@@@@@@@@...
    ...@@@.....@@@.
    ...@@@.....@@@.
    ...@@@@@@@@@...
    ...@@@.........
    ...@@@.........
    ...@@@.........
    ...............
    ...............


# [Q] LATIN CAPITAL LETTER Q
0x51:
u+0051:
    ...............
    ...............
    ...............
    .....@@@@@@....
    ...@@@....@@@..
    ..@@@......@@@.
    ..@@@......@@@.
    ..@@@..@@@.@@@.
    ...@@@..@@@@@..
    .....@@@@@@....
    ..........@@...
    ...........@@..


# [R] LATIN CAPITAL LETTER R
0x52:
u+0052:
    ...............
    ...............
    ...............
    ..@@@@@@@@@@...
    ..@@@.....@@@@.
    ..@@@.....@@@..
    ..@@@@@@@@@....
    ..@@@....@@@...
    ..@@@.....@@@..
    ..@@@......@@@.
    ...............
    ...............


# [S] LATIN CAPITAL LETTER S
0x53:
u+0053:
    ...............
    ...............
    ...............
    ....@@@@@@@@...
    ..@@@......@@@.
    ..@@@..........
    ....@@@@@@@@...
    ...........@@@.
    ..@@@......@@@.
    ....@@@@@@@@...
    ...............
    ...............


# [T] LATIN CAPITAL LETTER T
0x54:
u+0054:
    ...............
    ...............
    ...............
    ...@@@@@@@@@@@.
    .......@@@.....
    .......@@@.....
    .......@@@.....
    .......@@@.....
    .......@@@.....
    .......@@@.....
    ...............
    ...............


# [U] LATIN CAPITAL LETTER U
0x55:
u+0055:
    ...............
    ...............
    ...............
    ..@@@......@@@.
    ..@@@......@@@.
    ..@@@......@@@.
    ..@@@......@@@.
    ..@@@......@@@.
    ..@@@......@@@.
    ....@@@@@@@@...
    ...............
    ...............


# [V] LATIN CAPITAL LETTER V
0x56:
u+0056:
    ...............
    ...............
    ...............
    ...@@@.....@@@.
    ...@@@.....@@@.
    ...@@@.....@@@.
    ....@@@...@@@..
    .....@@@.@@@...
    ......@@@@@....
    .......@@@.....
    ...............
    ...............


# [W] LATIN CAPITAL LETTER W
0x57:
u+0057:
    ...............
    ...............
    ...............
    ..@@@..@@..@@@.
    ..@@@..@@..@@@.
    ..@@@..@@..@@@.
    ..@@@..@@..@@@.
    ...@@.@@@@.@@..
    ...@@@@..@@@@..
    ....@@....@@...
    ...............
    ...............


# [X] LATIN CAPITAL LETTER X
0x58:
u+0058:
    ...............
    ...............
    ...............
    ..@@@......@@@.
    ...@@@....@@@..
    .....@@..@@....
    ......@@@@.....
    .....@@..@@....
    ...@@@....@@@..
    ..@@@......@@@.
    ...............
    ...............


# [Y] LATIN CAPITAL LETTER Y
0x59:
u+0059:
    ...............
    ...............
    ...............
    ...@@@.....@@@.
    ...@@@.....@@@.
    ....@@@...@@@..
    .....@@@@@@@...
    .......@@@.....
    .......@@@.....
    .......@@@.....
    ...............
    ...............


# [Z] LATIN CAPITAL LETTER Z
0x5a:
u+005a:
    ...............
    ...............
    ...............
    ...@@@@@@@@@@..
    ..........@@@..
    .........@@@...
    .......@@@.....
    .....@@@.......
    ...@@@.........
    ...@@@@@@@@@@..
    ...............
    ...............


# [[] LEFT SQUARE BRACKET
0x5b:
u+005b:
    ...............
    ...............
    ......@@@@@....
    ......@@@......
    ......@@@......
    ......@@@......
    ......@@@......
    ......@@@......
    ......@@@......
    ......@@@......
    ......@@@@@....
    ...............


# [\] REVERSE SOLIDUS
0x5c:
u+005c:
    ...............
    ...............
    ..@@@..........
    ...@@@.........
    ....@@@........
    .....@@@.......
    ......@@@......
    .......@@@.....
    ........@@@....
    .........@@@...
    ..........@@@..
    ...............


# []] RIGHT SQUARE BRACKET
0x5d:
u+005d:
    ...............
    ...............
    ......@@@@@....
    ........@@@....
    ........@@@....
    ........@@@....
    ........@@@....
    ........@@@....
    ........@@@....
    ........@@@....
    ......@@@@@....
    ...............


# [^] CIRCUMFLEX ACCENT
0x5e:
u+005e:
    ...............
    ...............
    ...............
    ......@@@@@....
    .....@@@.@@@...
    ....@@@...@@@..
    ...............
    ...............
    ...............
    ...............
    ...............
    ...............


# [_] LOW LINE
0x5f:
u+005f:
    ...............
    ...............
    ...............
    ...............
    ...............
    ...............
    ...............
    ...............
    ...............
    ..@@@@@@@@@@@@.
    ...............
    ...............


# [`] GRAVE ACCENT
0x60:
u+0060:
    ...............
    ...............
    .....@@@.......
    .......@@@.....
    ...............
    ...............
    ...............
    ...............
    ...............
    ...............
    ...............
    ...............


# [a] LATIN SMALL LETTER A
0x61:
u+0061:
    ...............
    ...............
    ...............
    ...............
    ...............
    .....@@@@@@....
    ..........@@@..
    ....@@@@@@@@@..
    ...@@@....@@@..
    ....@@@@@@.@@@.
    ...............
    ...............


# [b] LATIN SMALL LETTER B
0x62:
u+0062:
    ...............
    ...............
    ...............
    ..@@@..........
    ..@@@..........
    ..@@@.@@@@@....
    ..@@@@....@@@..
    ..@@@......@@@.
    ..@@@.....@@@..
    ..@@.@@@@@.....
    ...............
    ...............


# [c] LATIN SMALL LETTER C
0x63:
u+0063:
    ...............
    ...............
    ...............
    ...............
    ...............
    .....@@@@@@@...
    ...@@@.....@@@.
    ..@@@..........
    ...@@@.....@@@.
    .....@@@@@@@...
    ...............
    ...............


# [d] LATIN SMALL LETTER D
0x64:
u+0064:
    ...............
    ...............
    ...............
    ...........@@@.
    ...........@@@.
    .....@@@@@.@@@.
    ...@@@....@@@@.
    ..@@@......@@@.
    ...@@@....@@@@.
    .....@@@@@.@@@.
    ...............
    ...............


# [e] LATIN SMALL LETTER E
0x65:
u+0065:
    ...............
    ...............
    ...............
    ...............
    ...............
    .....@@@@@@@...
    ...@@@.....@@@.
    ..@@@@@@@@@@@@.
    ...@@@.........
    .....@@@@@@@@..
    ...............
    ...............


# [f] LATIN SMALL LETTER F
0x66:
u+0066:
    ...............
    ...............
    ...............
    ......@@@@@@@..
    .....@@@.......
    ...@@@@@@@@@@..
    .....@@@.......
    .....@@@.......
    .....@@@.......
    ....@@@@@@.....
    ...............
    ...............


# [g] LATIN SMALL LETTER G
0x67:
u+0067:
    ...............
    ...............
    ...............
    ...............
    ...............
    .....@@@@@@@@@.
    ...@@@.....@@@.
    ..@@@......@@@.
    ...@@@....@@@@.
    .....@@@@@.@@@.
    ..........@@@..
    .....@@@@@@....


# [h] LATIN SMALL LETTER H
0x68:
u+0068:
    ...............
    ...............
    ...............
    ..@@@..........
    ..@@@..........
    ..@@@.@@@@@@...
    ..@@@@.....@@@.
    ..@@@......@@@.
    ..@@@......@@@.
    ..@@@......@@@.
    ...............
    ...............


# [i] LATIN SMALL LETTER I
0x69:
u+0069:
    ...............
    ...............
    ...............
    .......@@@.....
    ...............
    .....@@@@@.....
    .......@@@.....
    .......@@@.....
    .......@@@.....
    ....@@@@@@@@@..
    ...............
    ...............


# [j] LATIN SMALL LETTER J
0x6a:
u+006a:
    ...............
    ...............
    ...............
    ........@@@....
    ...............
    .....@@@@@@....
    ........@@@....
    ........@@@....
    ........@@@....
    ........@@@....
    .......@@@.....
    ...@@@@@@......


# [k] LATIN SMALL LETTER K
0x6b:
u+006b:
    ...............
    ...............
    ...............
    ..@@@..........
    ..@@@..........
    ..@@@....@@@@..
    ..@@@..@@@.....
    ..@@@@@@@......
    ..@@@..@@@@....
    ..@@@....@@@@@.
    ...............
    ...............


# [l] LATIN SMALL LETTER L
0x6c:
u+006c:
    ...............
    ...............
    ...............
    .....@@@@@.....
    .......@@@.....
    .......@@@.....
    .......@@@.....
    .......@@@.....
    .......@@@.....
    ....@@@@@@@@@..
    ...............
    ...............


# [m] LATIN SMALL LETTER M
0x6d:
u+006d:
    ...............
    ...............
    ...............
    ...............
    ...............
    ..@@.@@@.@@@@..
    ..@@@..@@..@@@.
    ..@@@..@@..@@@.
    ..@@@..@@..@@@.
    ..@@@..@@..@@@.
    ...............
    ...............


# [n] LATIN SMALL LETTER N
0x6e:
u+006e:
    ...............
    ...............
    ...............
    ...............
    ...............
    ..@@@.@@@@@@...
    ..@@@@.....@@@.
    ..@@@......@@@.
    ..@@@......@@@.
    ..@@@......@@@.
    ...............
    ...............


# [o] LATIN SMALL LETTER O
0x6f:
u+006f:
    ...............
    ...............
    ...............
    ...............
    ...............
    .....@@@@@@....
    ...@@@....@@@..
    ..@@@......@@@.
    ...@@@....@@@..
    .....@@@@@@....
    ...............
    ...............


# [p] LATIN SMALL LETTER P
0x70:
u+0070:
    ...............
    ...............
    ...............
    ...............
    ...............
    ..@@@.@@@@@....
    ..@@@@....@@@..
    ..@@@......@@@.
    ..@@@.....@@@..
    ..@@@@@@@@@....
    ..@@@..........
    ..@@@..........


# [q] LATIN SMALL LETTER Q
0x71:
u+0071:
    ...............
    ...............
    ...............
    ...............
    ...............
    .....@@@@@@@@@.
    ...@@@.....@@@.
    ..@@@......@@@.
    ...@@@....@@@@.
    .....@@@@@.@@@.
    ...........@@@.
    ...........@@@.


# [r] LATIN SMALL LETTER R
0x72:
u+0072:
    ...............
    ...............
    ...............
    ...............
    ...............
    ..@@@@.@@@@@@..
    ....@@@@...@@@.
    ....@@@........
    ....@@@........
    ..@@@@@@@......
    ...............
    ...............


# [s] LATIN SMALL LETTER S
0x73:
u+0073:
    ...............
    ...............
    ...............
    ...............
    ...............
    .....@@@@@@@@..
    ...@@@.........
    .....@@@@@@@...
    ...........@@@.
    ....@@@@@@@@...
    ...............
    ...............


# [t] LATIN SMALL LETTER T
0x74:
u+0074:
    ...............
    ...............
    ...............
    ......@@@......
    ......@@@......
    ...@@@@@@@@@@..
    ......@@@......
    ......@@@......
    ......@@@......
    .......@@@@@@..
    ...............
    ...............


# [u] LATIN SMALL LETTER U
0x75:
u+0075:
    ...............
    ...............
    ...............
    ...............
    ...............
    ..@@@......@@@.
    ..@@@......@@@.
    ..@@@......@@@.
    ..@@@@....@@@@.
    ....@@@@@@.@@@.
    ...............
    ...............


# [v] LATIN SMALL LETTER V
0x76:
u+0076:
    ...............
    ...............
    ...............
    ...............
    ...............
    ...@@@.....@@@.
    ....@@@...@@@..
    .....@@@.@@@...
    ......@@@@@....
    .......@@@.....
    ...............
    ...............


# [w] LATIN SMALL LETTER W
0x77:
u+0077:
    ...............
    ...............
    ...............
    ...............
    ...............
    ..@@@..@@..@@@.
    ..@@@..@@..@@@.
    ...@@.@@@@.@@..
    ...@@@@..@@@@..
    ....@@....@@...
    ...............
    ...............


# [x] LATIN SMALL LETTER X
0x78:
u+0078:
    ...............
    ...............
    ...............
    ...............
    ...............
    ...@@@....@@@..
    ....@@@..@@@...
    ......@@@@.....
    ....@@@..@@@...
    ...@@@....@@@..
    ...............
    ...............


# [y] LATIN SMALL LETTER Y
0x79:
u+0079:
    ...............
    ...............
    ...............
    ...............
    ...............
    ..@@@......@@@.
    ...@@@....@@@..
    ....@@@..@@@...
    .....@@@.@@....
    ......@@@@.....
    ......@@@......
    ...@@@@........


# [z] LATIN SMALL LETTER Z
0x7a:
u+007a:
    ...............
    ...............
    ...............
    ...............
    ...............
    ...@@@@@@@@@@..
    .........@@@...
    ......@@@......
    ...@@@.........
    ...@@@@@@@@@@..
    ...............
    ...............


# [{] LEFT CURLY BRACKET
0x7b:
u+007b:
    ...............
    ...............
    ..........@@@..
    ........@@@....
    .......@@......
    .......@@......
    ....@@@........
    .......@@......
    .......@@......
    ........@@@....
    ..........@@@..
    ...............


# [|] VERTICAL LINE
0x7c:
u+007c:
    ...............
    ...............
    .......@@@.....
    .......@@@.....
    .......@@@.....
    .......@@@.....
    .......@@@.....
    .......@@@.....
    .......@@@.....
    .......@@@.....
    .......@@@.....
    ...............


# [}] RIGHT CURLY BRACKET
0x7d:
u+007d:
    ...............
    ...............
    ...@@@.........
    .....@@@.......
    .......@@......
    .......@@......
    .........@@@...
    .......@@......
    .......@@......
    .....@@@.......
    ...@@@.........
    ...............


# [~] TILDE
0x7e:
u+007e:
    ...............
    ...............
    ...............
    ....@@@@...@@@.
    ...@@@@@@..@@@.
    ..@@@..@@@@@@..
    ..@@@...@@@@...
    ...............
    ...............
    ...............
    ...............
    ...............

0x7f:
    ...............
    ..@@@@@........
    ..@@..@@.......
    ..@@..@@.......
    ..@@..@@.......
    ..@@@@@........
    ........@@@@@@.
    ..........@@...
    ..........@@...
    ..........@@...
    ..........@@...
    ...............

0x80:
    ...............
    ...@@@@........
    ..@@..@@.......
    ...@@@@........
    ..@@..@@.......
    ...@@@@........
    ..........@@...
    ........@@..@@.
    ........@@..@@.
    ........@@..@@.
    ..........@@...
    ...............

0x81:
    ...............
    ....@@@@.......
    ...@@..@@......
    ....@@@@.......
    ...@@..@@......
    ....@@@@.......
    ..........@@...
    .........@@@...
    ..........@@...
    ..........@@...
    ..........@@...
    ...............

0x82:
    ...............
    ...@@@@........
    ..@@..@@.......
    ...@@@@........
    ..@@..@@.......
    ...@@@@........
    ........@@@@...
    ...........@@..
    ..........@@...
    .........@@....
    ........@@@@@..
    ...............

0x83:
    ...............
    ...@@@@........
    ..@@..@@.......
    ...@@@@........
    ..@@..@@.......
    ...@@@@........
    .........@@@...
    ............@@.
    .........@@@@..
    ............@@.
    .........@@@...
    ...............

0x84:
    ...............
    ..@@@@.........
    ...@@..........
    ...@@..........
    ...@@..........
    ..@@@@.........
    ........@@..@@.
    ........@@@.@@.
    ........@@.@@@.
    ........@@.@@@.
    ........@@..@@.
    ...............

0x85:
    ...............
    ..@@..@@.......
    ..@@@.@@.......
    ..@@.@@@.......
    ..@@.@@@.......
    ..@@..@@.......
    .........@@....
    .........@@....
    .........@@....
    .........@@....
    .........@@@@@.
    ...............

0x86:
    ...............
    ...@@@@@.......
    ..@@...........
    ...@@@@........
    ......@@.......
    ..@@@@@........
    .........@@@@@.
    ........@@.....
    .........@@@@..
    ............@@.
    ........@@@@@..
    ...............

0x87:
    ...............
    ..@@@@@........
    ..@@...........
    ..@@@@@........
    ..@@...........
    ..@@@@@........
    .........@@@@@.
    ........@@.....
    .........@@@@..
    ............@@.
    ........@@@@@..
    ...............

0x88:
    ...............
    ..@@..@@.......
    ..@@..@@.......
    ..@@@@@@.......
    ..@@..@@.......
    ..@@..@@.......
    .........@@@@@.
    ........@@.....
    .........@@@@..
    ............@@.
    ........@@@@@..
    ...............

0x89:
    ...............
    ..@@..@@.......
    ..@@..@@.......
    ..@@@@@@.......
    ..@@..@@.......
    ..@@..@@.......
    ...........@@..
    ...........@@..
    ...........@@..
    .......@@..@@..
    ........@@@@...
    ...............

0x8a:
    ...............
    ..@@..@@.......
    ..@@..@@.......
    ..@@..@@.......
    ...@@@@........
    ....@@.........
    .........@@@@@.
    ........@@.....
    .........@@@@..
    ............@@.
    ........@@@@@..
    ...............

0x8b:
    ...............
    ..@@@@@........
    ..@@..@@.......
    ..@@..@@.......
    ..@@@@.........
    ..@@...........
    ........@@@@@..
    ........@@..@@.
    ........@@..@@.
    ........@@..@@.
    ........@@@@@..
    ...............

0x8c:
    ...............
    ..@@@@@........
    ..@@..@@.......
    ..@@..@@.......
    ..@@@@.........
    ..@@...........
    ........@@..@@.
    ........@@..@@.
    ........@@..@@.
    ........@@..@@.
    .........@@@@..
    ...............

0x8d:
    ...............
    ..@@@@@........
    ..@@..@@.......
    ..@@@@@........
    ..@@..@@.......
    ..@@..@@.......
    .........@@@@..
    ..........@@...
    ..........@@...
    ..........@@...
    .........@@@@..
    ...............

0x8e:
    ...............
    ...@@@@@.......
    ..@@...........
    ...@@@@........
    ......@@.......
    ..@@@@@........
    .........@@@@..
    ............@@.
    ..........@@@..
    .........@@....
    .........@@@@@.
    ...............

0x8f:
    ...............
    ...@@@@@.......
    ..@@...........
    ...@@@@........
    ......@@.......
    ..@@@@@........
    .........@@@@..
    ............@@.
    ..........@@@..
    ............@@.
    .........@@@@..
    ...............

0x90:
    ...............
    ..@@@@@........
    ..@@..@@.......
    ..@@..@@.......
    ..@@..@@.......
    ..@@@@@........
    .........@@@@..
    ........@@.....
    ........@@.....
    ........@@.....
    .........@@@@..
    ...............

0x91:
    ...............
    ..@@@@@........
    ..@@..@@.......
    ..@@..@@.......
    ..@@@@.........
    ..@@...........
    ..........@@...
    .........@@@...
    ..........@@...
    ..........@@...
    ..........@@...
    ...............

0x92:
    ...............
    ..@@@@@........
    ..@@..@@.......
    ..@@..@@.......
    ..@@@@.........
    ..@@...........
    ........@@@@...
    ...........@@..
    ..........@@...
    .........@.....
    ........@@@@@@.
    ...............

0x93:
    ...............
    ...@@@@@.......
    ..@@...........
    ...@@@@........
    ......@@.......
    ..@@@@@........
    .........@@@@@.
    .........@@....
    .........@@@@..
    .........@@....
    .........@@@@@.
    ...............

0x94:
    ...............
    ...@@@@........
    ..@@...........
    ..@@...........
    ..@@...........
    ...@@@@........
    ..........@@@@.
    .........@@....
    .........@@....
    .........@@....
    ..........@@@@.
    ...............

0x95:
    ...............
    ..@@...@@......
    ..@@@.@@@......
    ..@@.@.@@......
    ..@@...@@......
    ..@@...@@......
    ...............
    .......@@...@@.
    .......@@.@.@@.
    .......@@.@.@@.
    ........@@.@@..
    ...............

0x96:
    ...............
    ...@@@@@.......
    ..@@...........
    ...@@@@........
    ......@@.......
    ..@@@@@........
    ........@@@@@..
    ........@@..@@.
    ........@@..@@.
    ........@@@@@..
    ........@@.....
    ...............

0x97:
    ...............
    ..@@@@@........
    ..@@...........
    ..@@@@@........
    ..@@...........
    ..@@@@@........
    ........@@@@@..
    ........@@..@@.
    ........@@..@@.
    ........@@@@@..
    ........@@.....
    ...............

0x98:
    ...............
    ....@@@........
    ...@@.@@.......
    ....@@@@.......
    ......@@.......
    ....@@@........
    ........@@@@...
    .......@@..@@..
    ........@@@@...
    .......@@..@@..
    ........@@@@...
    ...............

0x99:
    ...............
    ....@@@........
    ...@@.@@.......
    ....@@@@.......
    ......@@.......
    ....@@@........
    .........@@@...
    ........@@.@@..
    .........@@@@..
    ...........@@..
    .........@@@...
    ...............

0x9a:
    ...............
    ....@@@........
    ...@@.@@.......
    ....@@@@.......
    ......@@.......
    ....@@@........
    ...............
    ........@@@@...
    .......@@..@@..
    .......@@@@@@..
    .......@@..@@..
    ...............

0x9b:
    ...............
    ...@@@@........
    ..@@...........
    ..@@...........
    ..@@...........
    ...@@@@........
    .........@@@@@.
    ........@@.....
    .........@@@@..
    ............@@.
    ........@@@@@..
    ...............

0x9c:
    ...............
    ...@@@@........
    ..@@...........
    ...@@@@........
    ......@@.......
    ...@@@@........
    ........@@@@@@.
    ..........@@...
    ..........@@...
    ..........@@...
    ..........@@...
    ...............

0x9d:
    ...............
    ...@@@@........
    ..@@..@@.......
    ..@@..@@.......
    ..@@..@@.......
    ...@@@@........
    .........@@@@@.
    ........@@.....
    .........@@@@..
    ............@@.
    ........@@@@@..
    ...............

0x9e:
    ...............
    ..@@@@@........
    ..@@..@@.......
    ..@@..@@.......
    ..@@@@@........
    ..@@...........
    .......@@...@@.
    .......@@@.@@@.
    .......@@.@.@@.
    .......@@...@@.
    .......@@...@@.
    ...............

0x9f:
    ...............
    ...@@@@........
    ..@@..@@.......
    ..@@..@@.......
    ..@@@@@@.......
    ..@@..@@.......
    ........@@@@@..
    ........@@..@@.
    ........@@..@@.
    ........@@@@@..
    ........@@.....
    ...............


# [ ] NO-BREAK SPACE
0xa0:
u+00a0:
    ...............
    ...@@@@........
    ..@@..@@.......
    ..@@@@@@.......
    ..@@..@@.......
    ..@@..@@.......
    .........@@@@..
    ........@@..@@.
    ........@@..@@.
    ........@@..@@.
    .........@@@@..
    ...............


# [¡] INVERTED EXCLAMATION MARK
0xa1:
u+00a1:
    ...............
    ...............
    ...............
    ...............
    .......@@@.....
    ...............
    .......@@@.....
    .......@@@.....
    .......@@@.....
    .......@@@.....
    .......@@@.....
    ...............


# [¢] CENT SIGN
0xa2:
u+00a2:
    ...............
    ...............
    .......@@......
    .......@@......
    .....@@@@@@@...
    ...@@@.....@@@.
    ..@@@..........
    ...@@@.....@@@.
    .....@@@@@@@...
    .......@@......
    .......@@......
    ...............


# [£] POUND SIGN
0xa3:
u+00a3:
    ...............
    ...............
    ...............
    ......@@@@@@...
    ....@@@....@@..
    ....@@@........
    ..@@@@@@@......
    ....@@@........
    ....@@@.....@@.
    ..@@@..@@@@@@..
    ...............
    ...............


# [¤] CURRENCY SIGN
0xa4:
u+00a4:
    ...............
    ...............
    ...............
    ...............
    ...@@......@@..
    ....@@@@@@@@...
    ...@@......@@..
    ...@@......@@..
    ....@@@@@@@@...
    ...@@......@@..
    ...............
    ...............


# [¥] YEN SIGN
0xa5:
u+00a5:
    ...............
    ...............
    ...............
    ...@@@@...@@@@.
    ....@@@...@@@..
    .....@@@.@@@...
    ....@@@@@@@@@..
    .......@@@.....
    ....@@@@@@@@@..
    .......@@@.....
    ...............
    ...............


# [¦] BROKEN BAR
0xa6:
u+00a6:
    ...............
    ...............
    .......@@@.....
    .......@@@.....
    .......@@@.....
    .......@@@.....
    ...............
    .......@@@.....
    .......@@@.....
    .......@@@.....
    .......@@@.....
    ...............


# [§] SECTION SIGN
0xa7:
u+00a7:
    ...............
    ...............
    ...............
    .....@@@@@@@@..
    ...@@@.........
    .....@@@@@@....
    ....@@....@@@..
    ....@@@....@@..
    ......@@@@@@...
    ...........@@@.
    ....@@@@@@@@...
    ...............


# [¨] DIAERESIS
0xa8:
u+00a8:
    ...............
    ...@@@....@@@..
    ...............
    ...............
    ...............
    ...............
    ...............
    ...............
    ...............
    ...............
    ...............
    ...............


# [©] COPYRIGHT SIGN
0xa9:
u+00a9:
    ...............
    ...............
    .....@@@@@@....
    ....@......@...
    ...@@..@@@.@@..
    ...@@.@@...@@..
    ...@@.@@...@@..
    ...@@.@@...@@..
    ...@@..@@@.@@..
    ....@......@...
    .....@@@@@@....
    ...............


# [ª] FEMININE ORDINAL INDICATOR
0xaa:
u+00aa:
    ...............
    ...............
    .....@@@@@@....
    ..........@@...
    .....@@@@@@@...
    ....@@....@@...
    .....@@@@@@@...
    ...............
    ....@@@@@@@@...
    ...............
    ...............
    ...............


# [«] LEFT-POINTING DOUBLE ANGLE QUOTATION MARK
0xab:
u+00ab:
    ...............
    ...............
    ...............
    ...............
    ...............
    .....@@@..@@@..
    ...@@@..@@@....
    ..@@...@@......
    ...@@@..@@@....
    .....@@@..@@@..
    ...............
    ...............


# [¬] NOT SIGN
0xac:
u+00ac:
    ...............
    ...............
    ...............
    ...............
    ...............
    ..@@@@@@@@@@@@.
    ...........@@@.
    ...........@@@.
    ...............
    ...............
    ...............
    ...............


# SOFT HYPHEN
0xad:
u+00ad:
    ...............
    ...............
    ...............
    ...............
    ...............
    ...............
    ....@@@@@@@@...
    ...............
    ...............
    ...............
    ...............
    ...............


# [®] REGISTERED SIGN
0xae:
u+00ae:
    ...............
    ...............
    ....@@@@@@@@...
    ...@........@..
    ..@@.@@@@@..@@.
    ..@@.@@..@@.@@.
    ..@@.@@@@@..@@.
    ..@@.@@..@@.@@.
    ..@@.@@..@@.@@.
    ...@........@..
    ....@@@@@@@@...
    ...............


# [¯] MACRON
0xaf:
u+00af:
    ...............
    .....@@@@@@....
    ...............
    ...............
    ...............
    ...............
    ...............
    ...............
    ...............
    ...............
    ...............
    ...............


# [°] DEGREE SIGN
0xb0:
u+00b0:
    ...............
    ...............
    ...............
    .....@@@@@@....
    ....@@....@@...
    .....@@@@@@....
    ...............
    ...............
    ...............
    ...............
    ...............
    ...............


# [±] PLUS-MINUS SIGN
0xb1:
u+00b1:
    ...............
    ...............
    ...............
    .......@@@.....
    .......@@@.....
    ...@@@@@@@@@@@.
    .......@@@.....
    .......@@@.....
    ...............
    ...@@@@@@@@@@@.
    ...............
    ...............


# [²] SUPERSCRIPT TWO
0xb2:
u+00b2:
    ...............
    ...............
    .....@@@@@.....
    .........@@....
    .......@@......
    .....@@........
    .....@@@@@@....
    ...............
    ...............
    ...............
    ...............
    ...............


# [³] SUPERSCRIPT THREE
0xb3:
u+00b3:
    ...............
    ...............
    .....@@@@@.....
    .........@@....
    ......@@@@.....
    .........@@....
    .....@@@@@.....
    ...............
    ...............
    ...............
    ...............
    ...............


# [´] ACUTE ACCENT
0xb4:
u+00b4:
    ........@@@....
    .....@@@.......
    ...............
    ...............
    ...............
    ...............
    ...............
    ...............
    ...............
    ...............
    ...............
    ...............


# [µ] MICRO SIGN
0xb5:
u+00b5:
    ...............
    ...............
    ...............
    ...............
    ...............
    ....@@@...@@@..
    ....@@@...@@@..
    ...@@@...@@@...
    ...@@@...@@@...
    ..@@.@@@@.@@@@.
    ..@@...........
    ...............


# [¶] PILCROW SIGN
0xb6:
u+00b6:
    ...............
    ...............
    ......@@@@@@@@.
    ....@@@@@..@@..
    ...@@@@@@..@@..
    ...@@@@@@..@@..
    ....@@@@@..@@..
    ......@@@..@@..
    .......@@..@@..
    .......@@..@@..
    .......@@..@@..
    ...............


# [·] MIDDLE DOT
0xb7:
u+00b7:
    ...............
    ...............
    ...............
    ...............
    ...............
    ...............
    ......@@@@.....
    ...............
    ...............
    ...............
    ...............
    ...............


# [¸] CEDILLA
0xb8:
u+00b8:
    ...............
    ...............
    ...............
    ...............
    ...............
    ...............
    ...............
    ...............
    ...............
    ...............
    ......@@@......
    ....@@@........


# [¹] SUPERSCRIPT ONE
0xb9:
u+00b9:
    ...............
    ...............
    .......@@......
    ......@@@......
    .......@@......
    .......@@......
    .......@@......
    ...............
    ...............
    ...............
    ...............
    ...............


# [º] MASCULINE ORDINAL INDICATOR
0xba:
u+00ba:
    ...............
    ...............
    .....@@@@@@....
    ....@@....@@...
    ....@@....@@...
    ....@@....@@...
    .....@@@@@@....
    ...............
    ....@@@@@@@@...
    ...............
    ...............
    ...............


# [»] RIGHT-POINTING DOUBLE ANGLE QUOTATION MARK
0xbb:
u+00bb:
    ...............
    ...............
    ...............
    ...............
    ...............
    ...@@@..@@@....
    .....@@@..@@@..
    .......@@...@@.
    .....@@@..@@@..
    ...@@@..@@@....
    ...............
    ...............


# [¼] VULGAR FRACTION ONE QUARTER
0xbc:
u+00bc:
    ...............
    ...............
    ...@@..........
    ..@@@....@@....
    ...@@...@@.....
    ...@@..@@......
    ...@@.@@..@@@..
    .....@@..@.@@..
    ....@@..@..@@..
    ...@@..@@@@@@@.
    ...........@@..
    ...............


# [½] VULGAR FRACTION ONE HALF
0xbd:
u+00bd:
    ...............
    ...............
    ...@@..........
    ..@@@....@@....
    ...@@...@@.....
    ...@@..@@......
    ...@@.@@.@@@...
    .....@@....@@..
    ....@@....@@...
    ...@@....@@....
    ........@@@@@..
    ...............


# [¾] VULGAR FRACTION THREE QUARTERS
0xbe:
u+00be:
    ...............
    ...............
    ..@@@@.........
    .....@@..@@....
    ..@@@@..@@.....
    .....@@@@......
    ..@@@@@@..@@@..
    .....@@..@.@@..
    ....@@..@..@@..
    ...@@..@@@@@@@.
    ............@..
    ...............


# [¿] INVERTED QUESTION MARK
0xbf:
u+00bf:
    ...............
    ...............
    ...............
    ...............
    .......@@@.....
    ...............
    .......@@@.....
    .....@@@.......
    ...@@@.........
    ...@@@....@@@..
    ....@@@@@@@....
    ...............


# [À] LATIN CAPITAL LETTER A WITH GRAVE
0xc0:
u+00c0:
    .....@@@.......
    .......@@@.....
    ...............
    ......@@@@.....
    .....@@@@@@....
    ....@@@..@@@...
    ...@@@....@@@..
    ...@@@@@@@@@@..
    ..@@@......@@@.
    ..@@@......@@@.
    ...............
    ...............


# [Á] LATIN CAPITAL LETTER A WITH ACUTE
0xc1:
u+00c1:
    ........@@@....
    ......@@@......
    ...............
    ......@@@@.....
    .....@@@@@@....
    ....@@@..@@@...
    ...@@@....@@@..
    ...@@@@@@@@@@..
    ..@@@......@@@.
    ..@@@......@@@.
    ...............
    ...............


# [Â] LATIN CAPITAL LETTER A WITH CIRCUMFLEX
0xc2:
u+00c2:
    .....@@@@@@....
    ....@@....@@...
    ...............
    ......@@@@.....
    .....@@@@@@....
    ....@@@..@@@...
    ...@@@....@@@..
    ...@@@@@@@@@@..
    ..@@@......@@@.
    ..@@@......@@@.
    ...............
    ...............


# [Ã] LATIN CAPITAL LETTER A WITH TILDE
0xc3:
u+00c3:
    .....@@@@...@@.
    ...@@...@@@@...
    ...............
    ......@@@@.....
    .....@@@@@@....
    ....@@@..@@@...
    ...@@@....@@@..
    ...@@@@@@@@@@..
    ..@@@......@@@.
    ..@@@......@@@.
    ...............
    ...............


# [Ä] LATIN CAPITAL LETTER A WITH DIAERESIS
0xc4:
u+00c4:
    ...............
    ...@@@....@@@..
    ...............
    ......@@@@.....
    .....@@@@@@....
    ....@@@..@@@...
    ...@@@....@@@..
    ...@@@@@@@@@@..
    ..@@@......@@@.
    ..@@@......@@@.
    ...............
    ...............


# [Å] LATIN CAPITAL LETTER A WITH RING ABOVE
0xc5:
u+00c5:
    ......@@@@.....
    .....@@..@@....
    ......@@@@.....
    ......@@@@.....
    .....@@@@@@....
    ....@@@..@@@...
    ...@@@....@@@..
    ...@@@@@@@@@@..
    ..@@@......@@@.
    ..@@@......@@@.
    ...............
    ...............


# [Æ] LATIN CAPITAL LETTER AE
0xc6:
u+00c6:
    ...............
    ...............
    ...............
    .....@@@@@@@@@.
    ....@@..@@@....
    ...@@@..@@@....
    ...@@@..@@@@@@.
    ..@@@@@@@@@....
    ..@@@...@@@....
    ..@@@...@@@@@@.
    ...............
    ...............


# [Ç] LATIN CAPITAL LETTER C WITH CEDILLA
0xc7:
u+00c7:
    ...............
    ...............
    ...............
    .....@@@@@@@...
    ...@@@.....@@@.
    ..@@@..........
    ..@@@..........
    ..@@@..........
    ...@@@.....@@@.
    .....@@@@@@@...
    ........@@.....
    .....@@@.......


# [È] LATIN CAPITAL LETTER E WITH GRAVE
0xc8:
u+00c8:
    ......@@@......
    ........@@@....
    ...............
    ....@@@@@@@@@..
    ....@@@........
    ....@@@........
    ....@@@@@@@@@..
    ....@@@........
    ....@@@........
    ....@@@@@@@@@..
    ...............
    ...............


# [É] LATIN CAPITAL LETTER E WITH ACUTE
0xc9:
u+00c9:
    .........@@@...
    .......@@@.....
    ...............
    ....@@@@@@@@@..
    ....@@@........
    ....@@@........
    ....@@@@@@@@@..
    ....@@@........
    ....@@@........
    ....@@@@@@@@@..
    ...............
    ...............


# [Ê] LATIN CAPITAL LETTER E WITH CIRCUMFLEX
0xca:
u+00ca:
    ......@@@@@....
    .....@@...@@...
    ...............
    ....@@@@@@@@@..
    ....@@@........
    ....@@@........
    ....@@@@@@@@@..
    ....@@@........
    ....@@@........
    ....@@@@@@@@@..
    ...............
    ...............


# [Ë] LATIN CAPITAL LETTER E WITH DIAERESIS
0xcb:
u+00cb:
    ...............
    ....@@@...@@@..
    ...............
    ....@@@@@@@@@..
    ....@@@........
    ....@@@........
    ....@@@@@@@@@..
    ....@@@........
    ....@@@........
    ....@@@@@@@@@..
    ...............
    ...............


# [Ì] LATIN CAPITAL LETTER I WITH GRAVE
0xcc:
u+00cc:
    .....@@@.......
    .......@@@.....
    ...............
    .....@@@@@@@...
    .......@@@.....
    .......@@@.....
    .......@@@.....
    .......@@@.....
    .......@@@.....
    .....@@@@@@@...
    ...............
    ...............


# [Í] LATIN CAPITAL LETTER I WITH ACUTE
0xcd:
u+00cd:
    .........@@@...
    .......@@@.....
    ...............
    .....@@@@@@@...
    .......@@@.....
    .......@@@.....
    .......@@@.....
    .......@@@.....
    .......@@@.....
    .....@@@@@@@...
    ...............
    ...............


# [Î] LATIN CAPITAL LETTER I WITH CIRCUMFLEX
0xce:
u+00ce:
    ......@@@@@....
    .....@@...@@...
    ...............
    .....@@@@@@@...
    .......@@@.....
    .......@@@.....
    .......@@@.....
    .......@@@.....
    .......@@@.....
    .....@@@@@@@...
    ...............
    ...............


# [Ï] LATIN CAPITAL LETTER I WITH DIAERESIS
0xcf:
u+00cf:
    ...............
    ....@@@...@@@..
    ...............
    .....@@@@@@@...
    .......@@@.....
    .......@@@.....
    .......@@@.....
    .......@@@.....
    .......@@@.....
    .....@@@@@@@...
    ...............
    ...............


# [Ð] LATIN CAPITAL LETTER ETH
0xd0:
u+00d0:
    ...............
    ...............
    ...............
    ..@@@@@@@@@....
    ...@@@....@@@..
    ...@@@.....@@@.
    ..@@@@@@...@@@.
    ...@@@.....@@@.
    ...@@@....@@@..
    ..@@@@@@@@@....
    ...............
    ...............


# [Ñ] LATIN CAPITAL LETTER N WITH TILDE
0xd1:
u+00d1:
    .....@@@@...@@.
    ...@@...@@@@...
    ...............
    ..@@@......@@@.
    ..@@@@.....@@@.
    ..@@@@@@...@@@.
    ..@@@.@@@..@@@.
    ..@@@...@@@@@@.
    ..@@@....@@@@@.
    ..@@@......@@@.
    ...............
    ...............


# [Ò] LATIN CAPITAL LETTER O WITH GRAVE
0xd2:
u+00d2:
    .....@@@.......
    .......@@@.....
    ...............
    .....@@@@@@....
    ...@@@....@@@..
    ..@@@......@@@.
    ..@@@......@@@.
    ..@@@......@@@.
    ...@@@....@@@..
    .....@@@@@@....
    ...............
    ...............


# [Ó] LATIN CAPITAL LETTER O WITH ACUTE
0xd3:
u+00d3:
    .........@@@...
    .......@@@.....
    ...............
    .....@@@@@@....
    ...@@@....@@@..
    ..@@@......@@@.
    ..@@@......@@@.
    ..@@@......@@@.
    ...@@@....@@@..
    .....@@@@@@....
    ...............
    ...............


# [Ô] LATIN CAPITAL LETTER O WITH CIRCUMFLEX
0xd4:
u+00d4:
    .....@@@@@@....
    ....@@....@@...
    ...............
    .....@@@@@@....
    ...@@@....@@@..
    ..@@@......@@@.
    ..@@@......@@@.
    ..@@@......@@@.
    ...@@@....@@@..
    .....@@@@@@....
    ...............
    ...............


# [Õ] LATIN CAPITAL LETTER O WITH TILDE
0xd5:
u+00d5:
    .....@@@@...@@.
    ...@@...@@@@...
    ...............
    .....@@@@@@....
    ...@@@....@@@..
    ..@@@......@@@.
    ..@@@......@@@.
    ..@@@......@@@.
    ...@@@....@@@..
    .....@@@@@@....
    ...............
    ...............


# [Ö] LATIN CAPITAL LETTER O WITH DIAERESIS
0xd6:
u+00d6:
    ...............
    ...@@@....@@@..
    ...............
    .....@@@@@@....
    ...@@@....@@@..
    ..@@@......@@@.
    ..@@@......@@@.
    ..@@@......@@@.
    ...@@@....@@@..
    .....@@@@@@....
    ...............
    ...............


# [×] MULTIPLICATION SIGN
0xd7:
u+00d7:
    ...............
    ...............
    ...............
    ....@@....@@...
    .....@@..@@....
    ......@@@@.....
    ......@@@@.....
    .....@@..@@....
    ....@@....@@...
    ...............
    ...............
    ...............


# [Ø] LATIN CAPITAL LETTER O WITH STROKE
0xd8:
u+00d8:
    ...............
    ...............
    ...........@@..
    .....@@@@@@@@..
    ...@@@...@@@@..
    ..@@@...@@.@@@.
    ..@@@..@@..@@@.
    ..@@@.@@...@@@.
    ...@@@@...@@@..
    ...@@@@@@@@....
    ...@@..........
    ...............


# [Ù] LATIN CAPITAL LETTER U WITH GRAVE
0xd9:
u+00d9:
    .....@@@.......
    .......@@@.....
    ...............
    ..@@@......@@@.
    ..@@@......@@@.
    ..@@@......@@@.
    ..@@@......@@@.
    ..@@@......@@@.
    ..@@@......@@@.
    ....@@@@@@@@...
    ...............
    ...............


# [Ú] LATIN CAPITAL LETTER U WITH ACUTE
0xda:
u+00da:
    ........@@@....
    ......@@@......
    ...............
    ..@@@......@@@.
    ..@@@......@@@.
    ..@@@......@@@.
    ..@@@......@@@.
    ..@@@......@@@.
    ..@@@......@@@.
    ....@@@@@@@@...
    ...............
    ...............


# [Û] LATIN CAPITAL LETTER U WITH CIRCUMFLEX
0xdb:
u+00db:
    .....@@@@@@....
    ....@@....@@...
    ...............
    ..@@@......@@@.
    ..@@@......@@@.
    ..@@@......@@@.
    ..@@@......@@@.
    ..@@@......@@@.
    ..@@@......@@@.
    ....@@@@@@@@...
    ...............
    ...............


# [Ü] LATIN CAPITAL LETTER U WITH DIAERESIS
0xdc:
u+00dc:
    ...............
    ...@@@....@@@..
    ...............
    ..@@@......@@@.
    ..@@@......@@@.
    ..@@@......@@@.
    ..@@@......@@@.
    ..@@@......@@@.
    ..@@@......@@@.
    ....@@@@@@@@...
    ...............
    ...............


# [Ý] LATIN CAPITAL LETTER Y WITH ACUTE
0xdd:
u+00dd:
    .........@@@...
    .......@@@.....
    ...............
    ...@@@.....@@@.
    ...@@@.....@@@.
    ....@@@...@@@..
    ......@@@@@....
    .......@@@.....
    .......@@@.....
    .......@@@.....
    ...............
    ...............


# [Þ] LATIN CAPITAL LETTER THORN
0xde:
u+00de:
    ...............
    ...............
    ...............
    ..@@@@.........
    ...@@@@@@@@....
    ...@@@....@@@..
    ...@@@.....@@@.
    ...@@@....@@@..
    ...@@@@@@@@....
    ..@@@@.........
    ...............
    ...............


# [ß] LATIN SMALL LETTER SHARP S
0xdf:
u+00df:
    ...............
    ...............
    ...............
    .....@@@@@@@...
    ...@@@.....@@@.
    ..@@@@.....@@@.
    ...@@@..@@@@...
    ...@@@.....@@@.
    ...@@@.....@@@.
    ..@@@@..@@@@...
    ...............
    ...............


# [à] LATIN SMALL LETTER A WITH GRAVE
0xe0:
u+00e0:
    ...............
    ...............
    ......@@@......
    ........@@@....
    ...............
    .....@@@@@@....
    ..........@@@..
    ....@@@@@@@@@..
    ...@@@....@@@..
    ....@@@@@@.@@@.
    ...............
    ...............


# [á] LATIN SMALL LETTER A WITH ACUTE
0xe1:
u+00e1:
    ...............
    ...............
    .........@@@...
    .......@@@.....
    ...............
    .....@@@@@@....
    ..........@@@..
    ....@@@@@@@@@..
    ...@@@....@@@..
    ....@@@@@@.@@@.
    ...............
    ...............


# [â] LATIN SMALL LETTER A WITH CIRCUMFLEX
0xe2:
u+00e2:
    ...............
    ...............
    ......@@@@@....
    .....@@...@@...
    ...............
    .....@@@@@@....
    ..........@@@..
    ....@@@@@@@@@..
    ...@@@....@@@..
    ....@@@@@@.@@@.
    ...............
    ...............


# [ã] LATIN SMALL LETTER A WITH TILDE
0xe3:
u+00e3:
    ...............
    ...............
    .....@@@@...@@.
    ...@@...@@@@...
    ...............
    .....@@@@@@....
    ..........@@@..
    ....@@@@@@@@@..
    ...@@@....@@@..
    ....@@@@@@.@@@.
    ...............
    ...............


# [ä] LATIN SMALL LETTER A WITH DIAERESIS
0xe4:
u+00e4:
    ...............
    ...............
    ...............
    ....@@@...@@@..
    ...............
    .....@@@@@@....
    ..........@@@..
    ....@@@@@@@@@..
    ...@@@....@@@..
    ....@@@@@@.@@@.
    ...............
    ...............


# [å] LATIN SMALL LETTER A WITH RING ABOVE
0xe5:
u+00e5:
    ...............
    ......@@@@@....
    .....@@...@@...
    ......@@@@@....
    ...............
    .....@@@@@@....
    ..........@@@..
    ....@@@@@@@@@..
    ...@@@....@@@..
    ....@@@@@@.@@@.
    ...............
    ...............


# [æ] LATIN SMALL LETTER AE
0xe6:
u+00e6:
    ...............
    ...............
    ...............
    ...............
    ...............
    ....@@@@.@@@@..
    .......@@@..@@.
    ...@@@@@@@@@@@.
    ..@@@..@@@.....
    ...@@@@@.@@@@@.
    ...............
    ...............


# [ç] LATIN SMALL LETTER C WITH CEDILLA
0xe7:
u+00e7:
    ...............
    ...............
    ...............
    ...............
    ...............
    .....@@@@@@@...
    ...@@@.....@@@.
    ..@@@..........
    ...@@@.....@@@.
    .....@@@@@@@...
    .......@@......
    ....@@@........


# [è] LATIN SMALL LETTER E WITH GRAVE
0xe8:
u+00e8:
    ...............
    ...............
    .....@@@.......
    .......@@@.....
    ...............
    .....@@@@@@@...
    ...@@@.....@@@.
    ..@@@@@@@@@@@@.
    ...@@@.........
    .....@@@@@@@@..
    ...............
    ...............


# [é] LATIN SMALL LETTER E WITH ACUTE
0xe9:
u+00e9:
    ...............
    ...............
    .........@@@...
    .......@@@.....
    ...............
    .....@@@@@@@...
    ...@@@.....@@@.
    ..@@@@@@@@@@@@.
    ...@@@.........
    .....@@@@@@@@..
    ...............
    ...............


# [ê] LATIN SMALL LETTER E WITH CIRCUMFLEX
0xea:
u+00ea:
    ...............
    ...............
    .....@@@@@@@...
    ....@@.....@@..
    ...............
    .....@@@@@@@...
    ...@@@.....@@@.
    ..@@@@@@@@@@@@.
    ...@@@.........
    .....@@@@@@@@..
    ...............
    ...............


# [ë] LATIN SMALL LETTER E WITH DIAERESIS
0xeb:
u+00eb:
    ...............
    ...............
    ...............
    ....@@@...@@@..
    ...............
    .....@@@@@@@...
    ...@@@.....@@@.
    ..@@@@@@@@@@@@.
    ...@@@.........
    .....@@@@@@@@..
    ...............
    ...............


# [ì] LATIN SMALL LETTER I WITH GRAVE
0xec:
u+00ec:
    ...............
    ...............
    .....@@@.......
    .......@@@.....
    ...............
    .....@@@@@.....
    .......@@@.....
    .......@@@.....
    .......@@@.....
    ....@@@@@@@@@..
    ...............
    ...............


# [í] LATIN SMALL LETTER I WITH ACUTE
0xed:
u+00ed:
    ...............
    ...............
    ........@@@....
    ......@@@......
    ...............
    .....@@@@@.....
    .......@@@.....
    .......@@@.....
    .......@@@.....
    ....@@@@@@@@@..
    ...............
    ...............


# [î] LATIN SMALL LETTER I WITH CIRCUMFLEX
0xee:
u+00ee:
    ...............
    ...............
    .....@@@@@@....
    ....@@....@@...
    ...............
    .....@@@@@.....
    .......@@@.....
    .......@@@.....
    .......@@@.....
    ....@@@@@@@@@..
    ...............
    ...............


# [ï] LATIN SMALL LETTER I WITH DIAERESIS
0xef:
u+00ef:
    ...............
    ...............
    ...............
    ....@@@..@@@...
    ...............
    .....@@@@@.....
    .......@@@.....
    .......@@@.....
    .......@@@.....
    ....@@@@@@@@@..
    ...............
    ...............


# [ð] LATIN SMALL LETTER ETH
0xf0:
u+00f0:
    ...............
    .........@@....
    ....@@@@@@.....
    .......@@@@@...
    ......@@...@@..
    .....@@@@@@@@@.
    ...@@@.....@@@.
    ..@@@.......@@.
    ...@@@.....@@@.
    .....@@@@@@@...
    ...............
    ...............


# [ñ] LATIN SMALL LETTER N WITH TILDE
0xf1:
u+00f1:
    ...............
    ...............
    .....@@@@...@@.
    ...@@...@@@@...
    ...............
    ..@@@.@@@@@@@..
    ..@@@@.....@@@.
    ..@@@......@@@.
    ..@@@......@@@.
    ..@@@......@@@.
    ...............
    ...............


# [ò] LATIN SMALL LETTER O WITH GRAVE
0xf2:
u+00f2:
    ...............
    ...............
    .....@@@.......
    .......@@@.....
    ...............
    .....@@@@@@....
    ...@@@....@@@..
    ..@@@......@@@.
    ...@@@....@@@..
    .....@@@@@@....
    ...............
    ...............


# [ó] LATIN SMALL LETTER O WITH ACUTE
0xf3:
u+00f3:
    ...............
    ...............
    .........@@@...
    .......@@@.....
    ...............
    .....@@@@@@....
    ...@@@....@@@..
    ..@@@......@@@.
    ...@@@....@@@..
    .....@@@@@@....
    ...............
    ...............


# [ô] LATIN SMALL LETTER O WITH CIRCUMFLEX
0xf4:
u+00f4:
    ...............
    ...............
    .....@@@@@@....
    ....@@....@@...
    ...............
    .....@@@@@@....
    ...@@@....@@@..
    ..@@@......@@@.
    ...@@@....@@@..
    .....@@@@@@....
    ...............
    ...............


# [õ] LATIN SMALL LETTER O WITH TILDE
0xf5:
u+00f5:
    ...............
    ...............
    .....@@@@...@@.
    ...@@...@@@@...
    ...............
    .....@@@@@@....
    ...@@@....@@@..
    ..@@@......@@@.
    ...@@@....@@@..
    .....@@@@@@....
    ...............
    ...............


# [ö] LATIN SMALL LETTER O WITH DIAERESIS
0xf6:
u+00f6:
    ...............
    ...............
    ...............
    ...@@@....@@@..
    ...............
    .....@@@@@@....
    ...@@@....@@@..
    ..@@@......@@@.
    ...@@@....@@@..
    .....@@@@@@....
    ...............
    ...............


# [÷] DIVISION SIGN
0xf7:
u+00f7:
    ...............
    ...............
    ...............
    .......@@@.....
    .......@@@.....
    ...............
    ...@@@@@@@@@@@.
    ...............
    .......@@@.....
    .......@@@.....
    ...............
    ...............


# [ø] LATIN SMALL LETTER O WITH STROKE
0xf8:
u+00f8:
    ...............
    ...............
    ...............
    ...............
    ...........@@..
    .....@@@@@@@@..
    ...@@@...@@@@..
    ..@@@..@@..@@@.
    ...@@@@...@@@..
    ...@@@@@@@@....
    ...@@..........
    ...............


# [ù] LATIN SMALL LETTER U WITH GRAVE
0xf9:
u+00f9:
    ...............
    ...............
    .....@@@.......
    .......@@@.....
    ...............
    ..@@@......@@@.
    ..@@@......@@@.
    ..@@@......@@@.
    ..@@@@....@@@@.
    ....@@@@@@.@@@.
    ...............
    ...............


# [ú] LATIN SMALL LETTER U WITH ACUTE
0xfa:
u+00fa:
    ...............
    ...............
    ........@@@....
    ......@@@......
    ...............
    ..@@@......@@@.
    ..@@@......@@@.
    ..@@@......@@@.
    ..@@@@....@@@@.
    ....@@@@@@.@@@.
    ...............
    ...............


# [û] LATIN SMALL LETTER U WITH CIRCUMFLEX
0xfb:
u+00fb:
    ...............
    ...............
    .....@@@@@@....
    ....@@....@@...
    ...............
    ..@@@......@@@.
    ..@@@......@@@.
    ..@@@......@@@.
    ..@@@@....@@@@.
    ....@@@@@@.@@@.
    ...............
    ...............


# [ü] LATIN SMALL LETTER U WITH DIAERESIS
0xfc:
u+00fc:
    ...............
    ...............
    ...............
    ...@@@....@@@..
    ...............
    ..@@@......@@@.
    ..@@@......@@@.
    ..@@@......@@@.
    ..@@@@....@@@@.
    ....@@@@@@.@@@.
    ...............
    ...............


# [ý] LATIN SMALL LETTER Y WITH ACUTE
0xfd:
u+00fd:
    ...............
    ...............
    .........@@@...
    .......@@@.....
    ...............
    ..@@@......@@@.
    ...@@@....@@@..
    ....@@@..@@@...
    .....@@.@@@....
    ......@@@@.....
    ......@@@......
    ...@@@@........


# [þ] LATIN SMALL LETTER THORN
0xfe:
u+00fe:
    ...............
    ...............
    ...............
    ..@@@..........
    ..@@@..........
    ..@@@@@@@@@....
    ..@@@.....@@@..
    ..@@@......@@@.
    ..@@@.....@@@..
    ..@@@@@@@@@....
    ..@@@..........
    ..@@@..........


# [ÿ] LATIN SMALL LETTER Y WITH DIAERESIS
0xff:
u+00ff:
    ...............
    ...............
    ...............
    ...@@@...@@@...
    ...............
    ..@@@.....@@@..
    ...@@@...@@@...
    ....@@@.@@@....
    .....@@@@@.....
    ......@@@......
    .....@@@.......
    ..@@@@.........


# [␀] SYMBOL FOR NULL
0x100:
u+2400:
    ...............
    ..@@..@@.......
    ..@@@.@@.......
    ..@@.@@@.......
    ..@@.@@@.......
    ..@@..@@.......
    ...............
    ........@@..@@.
    ........@@..@@.
    ........@@..@@.
    .........@@@@..
    ...............


# [◆] BLACK DIAMOND
0x101:
u+25c6:
    ...............
    ...............
    .......@@......
    ......@@@@.....
    .....@@@@@@....
    ....@@@@@@@@...
    .....@@@@@@....
    ......@@@@.....
    .......@@......
    ...............
    ...............
    ...............


# [▒] MEDIUM SHADE
0x102:
u+2592:
    ...............
    @@@..@@@..@@@..
    @@@..@@@..@@@..
    ..@@@..@@@..@@@
    ..@@@..@@@..@@@
    @@@..@@@..@@@..
    @@@..@@@..@@@..
    ..@@@..@@@..@@@
    ..@@@..@@@..@@@
    @@@..@@@..@@@..
    @@@..@@@..@@@..
    ...............


# [␉] SYMBOL FOR HORIZONTAL TABULATION
0x103:
u+2409:
    ...............
    ..@@..@@.......
    ..@@..@@.......
    ..@@@@@@.......
    ..@@..@@.......
    ..@@..@@.......
    ........@@@@@@.
    ..........@@...
    ..........@@...
    ..........@@...
    ..........@@...
    ...............


# [␌] SYMBOL FOR FORM FEED
0x104:
u+240c:
    ...............
    ..@@@@@........
    ..@@...........
    ..@@@@@........
    ..@@...........
    ..@@...........
    ........@@@@@..
    ........@@.....
    ........@@@@@..
    ........@@.....
    ........@@.....
    ...............


# [␍] SYMBOL FOR CARRIAGE RETURN
0x105:
u+240d:
    ...............
    ...@@@@........
    ..@@...........
    ..@@...........
    ..@@...........
    ...@@@@........
    .........@@@@..
    .........@@.@@.
    .........@@.@@.
    .........@@@@..
    .........@@.@@.
    ...............


# [␊] SYMBOL FOR LINE FEED
0x106:
u+240a:
    ...............
    ..@@...........
    ..@@...........
    ..@@...........
    ..@@...........
    ..@@@@.........
    .........@@@@@.
    .........@@....
    .........@@@@@.
    .........@@....
    .........@@....
    ...............


# [°] DEGREE SIGN
0x107:
u+00b0:
    ...............
    ...............
    .....@@@@@@....
    ....@@....@@...
    .....@@@@@@....
    ...............
    ...............
    ...............
    ...............
    ...............
    ...............
    ...............


# [±] PLUS-MINUS SIGN
0x108:
u+00b1:
    ...............
    ...............
    .......@@@.....
    .......@@@.....
    ...@@@@@@@@@@@.
    .......@@@.....
    .......@@@.....
    ...............
    ...@@@@@@@@@@@.
    ...............
    ...............
    ...............


# [␤] SYMBOL FOR NEWLINE
0x109:
u+2424:
    ...............
    ..@@..@@.......
    ..@@@.@@.......
    ..@@@@@@.......
    ..@@.@@@.......
    ..@@..@@.......
    ..........@@...
    ..........@@...
    ..........@@...
    ..........@@...
    ..........@@@@.
    ...............


# [␋] SYMBOL FOR VERTICAL TABULATION
0x10a:
u+240b:
    ...............
    ..@@..@@.......
    ..@@..@@.......
    ..@@..@@.......
    ...@@@@........
    ....@@.........
    ........@@@@@@.
    ..........@@...
    ..........@@...
    ..........@@...
    ..........@@...
    ...............


# [┘] BOX DRAWINGS LIGHT UP AND LEFT
0x10b:
u+2518:
    .......@@......
    .......@@......
    .......@@......
    .......@@......
    .......@@......
    @@@@@@@@@......
    ...............
    ...............
    ...............
    ...............
    ...............
    ...............


# [┐] BOX DRAWINGS LIGHT DOWN AND LEFT
0x10c:
u+2510:
    ...............
    ...............
    ...............
    ...............
    ...............
    @@@@@@@@@......
    .......@@......
    .......@@......
    .......@@......
    .......@@......
    .......@@......
    .......@@......


# [┌] BOX DRAWINGS LIGHT DOWN AND RIGHT
0x10d:
u+250c:
    ...............
    ...............
    ...............
    ...............
    ...............
    .......@@@@@@@@
    .......@@......
    .......@@......
    .......@@......
    .......@@......
    .......@@......
    .......@@......


# [└] BOX DRAWINGS LIGHT UP AND RIGHT
0x10e:
u+2514:
    .......@@......
    .......@@......
    .......@@......
    .......@@......
    .......@@......
    .......@@@@@@@@
    ...............
    ...............
    ...............
    ...............
    ...............
    ...............


# [┼] BOX DRAWINGS LIGHT VERTICAL AND HORIZONTAL
0x10f:
u+253c:
    .......@@......
    .......@@......
    .......@@......
    .......@@......
    .......@@......
    @@@@@@@@@@@@@@@
    .......@@......
    .......@@......
    .......@@......
    .......@@......
    .......@@......
    .......@@......


# [⎺] HORIZONTAL SCAN LINE-1
0x110:
u+23ba:
    @@@@@@@@@@@@@@@
    ...............
    ...............
    ...............
    ...............
    ...............
    ...............
    ...............
    ...............
    ...............
    ...............
    ...............


# [⎻] HORIZONTAL SCAN LINE-3
0x111:
u+23bb:
    ...............
    ...............
    @@@@@@@@@@@@@@@
    ...............
    ...............
    ...............
    ...............
    ...............
    ...............
    ...............
    ...............
    ...............


# [─] BOX DRAWINGS LIGHT HORIZONTAL
0x112:
u+2500:
    ...............
    ...............
    ...............
    ...............
    ...............
    @@@@@@@@@@@@@@@
    ...............
    ...............
    ...............
    ...............
    ...............
    ...............


# [⎼] HORIZONTAL SCAN LINE-7
0x113:
u+23bc:
    ...............
    ...............
    ...............
    ...............
    ...............
    ...............
    ...............
    @@@@@@@@@@@@@@@
    ...............
    ...............
    ...............
    ...............


# [⎽] HORIZONTAL SCAN LINE-9
0x114:
u+23bd:
    ...............
    ...............
    ...............
    ...............
    ...............
    ...............
    ...............
    ...............
    ...............
    ...............
    @@@@@@@@@@@@@@@
    ...............


# [├] BOX DRAWINGS LIGHT VERTICAL AND RIGHT
0x115:
u+251c:
    .......@@......
    .......@@......
    .......@@......
    .......@@......
    .......@@......
    .......@@@@@@@@
    .......@@......
    .......@@......
    .......@@......
    .......@@......
    .......@@......
    .......@@......


# [┤] BOX DRAWINGS LIGHT VERTICAL AND LEFT
0x116:
u+2524:
    ......@@.......
    ......@@.......
    ......@@.......
    ......@@.......
    ......@@.......
    @@@@@@@@.......
    ......@@.......
    ......@@.......
    ......@@.......
    ......@@.......
    ......@@.......
    ......@@.......


# [┴] BOX DRAWINGS LIGHT UP AND HORIZONTAL
0x117:
u+2534:
    ......@@.......
    ......@@.......
    ......@@.......
    ......@@.......
    ......@@.......
    @@@@@@@@@@@@@@@
    ...............
    ...............
    ...............
    ...............
    ...............
    ...............


# [┬] BOX DRAWINGS LIGHT DOWN AND HORIZONTAL
0x118:
u+252c:
    ...............
    ...............
    ...............
    ...............
    ...............
    @@@@@@@@@@@@@@@
    .......@@......
    .......@@......
    .......@@......
    .......@@......
    .......@@......
    .......@@......


# [│] BOX DRAWINGS LIGHT VERTICAL
0x119:
u+2502:
    .......@@......
    .......@@......
    .......@@......
    .......@@......
    .......@@......
    .......@@......
    .......@@......
    .......@@......
    .......@@......
    .......@@......
    .......@@......
    .......@@......


# [≤] LESS-THAN OR EQUAL TO
0x11a:
u+2264:
    ...............
    ...............
    ...............
    .........@@@@..
    .......@@@@....
    .....@@@@......
    ...@@@@........
    ...@@@@@@@@@@..
    ...............
    ...@@@@@@@@@@..
    ...............
    ...............


# [≥] GREATER-THAN OR EQUAL TO
0x11b:
u+2265:
    ...............
    ...............
    ...............
    ...@@@@........
    .....@@@@......
    .......@@@@....
    .........@@@@..
    ...@@@@@@@@@@..
    ...............
    ...@@@@@@@@@@..
    ...............
    ...............


# [π] GREEK SMALL LETTER PI
0x11c:
u+03c0:
    ...............
    ...............
    ...............
    ...............
    ...............
    ..@@@@@@@@@@@@.
    ....@@@...@@@..
    ....@@@...@@@..
    ....@@@...@@@..
    ...@@@....@@@..
    ...............
    ...............


# [≠] NOT EQUAL TO
0x11d:
u+2260:
    ...............
    ...............
    ...............
    ..........@@...
    .........@@....
    ...@@@@@@@@@@..
    .......@@......
    ...@@@@@@@@@@..
    .....@@........
    ....@@.........
    ...............
    ...............


# [£] POUND SIGN
0x11e:
u+00a3:
    ...............
    ...............
    ...............
    ......@@@@@@...
    ....@@@....@@..
    ....@@@........
    ..@@@@@@@......
    ....@@@........
    ....@@@.....@@.
    ..@@@..@@@@@@..
    ...............
    ...............


# [·] MIDDLE DOT
0x11f:
u+00b7:
    ...............
    ...............
    ...............
    ...............
    ...............
    ...............
    .......@@......
    ...............
    ...............
    ...............
    ...............
    ...............


# [Œ] LATIN CAPITAL LIGATURE OE
0x180:
u+0152:
    ...............
    ...............
    ...............
    .....@@@@@@@@@.
    ...@@@..@@@....
    ..@@@...@@@....
    ..@@@...@@@@@@.
    ..@@@...@@@....
    ...@@@..@@@....
    .....@@@@@@@@@.
    ...............
    ...............


# [Ÿ] LATIN CAPITAL LETTER Y WITH DIAERESIS
0x181:
u+0178:
    ...............
    ....@@@...@@@..
    ...............
    ...@@@.....@@@.
    ...@@@.....@@@.
    ....@@@...@@@..
    ......@@@@@....
    .......@@@.....
    .......@@@.....
    .......@@@.....
    ...............
    ...............


# [œ] LATIN SMALL LIGATURE OE
0x182:
u+0153:
    ...............
    ...............
    ...............
    ...............
    ...............
    .....@@@@.@@@..
    ...@@@..@@..@@.
    ..@@@...@@@@@@.
    ...@@@..@@.....
    .....@@@@.@@@..
    ...............
    ...............


# [□] WHITE SQUARE
0x183:
u+25a1:
    @@@@@@@@@......
    @.......@......
    @.......@......
    @.......@......
    @.......@......
    @.......@......
    @.......@......
    @.......@......
    @.......@......
    @.......@......
    @.......@......
    @@@@@@@@@......


# [▣] WHITE SQUARE CONTAINING BLACK SMALL SQUARE
0x184:
u+25a3:
    @@@@@@@@@......
    @.......@......
    @.......@......
    @..@@@..@......
    @..@@@..@......
    @..@@@..@......
    @..@@@..@......
    @..@@@..@......
    @..@@@..@......
    @.......@......
    @.......@......
    @@@@@@@@@......


# [␦] SYMBOL FOR SUBSTITUTE FORM TWO
0x185:
u+2426:
    ...............
    .....@@@@@@....
    ...@@@@@@@@@@..
    ..@@@@....@@@@.
    ..@@@@.........
    ..@@@@.........
    ...@@@@@@@.....
    .....@@@@@@@...
    ........@@@@...
    ...............
    ........@@@@...
    ........@@@@...

